<?xml version="1.0" encoding="UTF-8" standalone="no"?>
<!DOCTYPE svg PUBLIC "-//W3C//DTD SVG 1.1//EN"
 "http://www.w3.org/Graphics/SVG/1.1/DTD/svg11.dtd">
<!-- Generated by graphviz version 2.47.3 (20210619.1520)
 -->
<!-- Title: G Pages: 1 -->
<svg width="798pt" height="482pt"
 viewBox="0.00 0.00 798.00 482.00" xmlns="http://www.w3.org/2000/svg" xmlns:xlink="http://www.w3.org/1999/xlink">
<g id="graph0" class="graph" transform="scale(1 1) rotate(0) translate(4 478)">
<title>G</title>
<polygon fill="white" stroke="transparent" points="-4,4 -4,-478 794,-478 794,4 -4,4"/>
<g id="clust1" class="cluster">
<title>cluster_Global</title>
<path fill="none" stroke="gray" d="M20,-44C20,-44 770,-44 770,-44 776,-44 782,-50 782,-56 782,-56 782,-454 782,-454 782,-460 776,-466 770,-466 770,-466 20,-466 20,-466 14,-466 8,-460 8,-454 8,-454 8,-56 8,-56 8,-50 14,-44 20,-44"/>
<text text-anchor="middle" x="395" y="-453.2" font-family="Times,serif" font-size="11.00" fill="gray">Global</text>
</g>
<g id="clust2" class="cluster">
<title>cluster_\Viessmann</title>
<path fill="none" stroke="gray" d="M28,-52C28,-52 762,-52 762,-52 768,-52 774,-58 774,-64 774,-64 774,-426 774,-426 774,-432 768,-438 762,-438 762,-438 28,-438 28,-438 22,-438 16,-432 16,-426 16,-426 16,-64 16,-64 16,-58 22,-52 28,-52"/>
<text text-anchor="middle" x="395" y="-425.2" font-family="Times,serif" font-size="11.00" fill="gray">Viessmann</text>
</g>
<g id="clust3" class="cluster">
<title>cluster_\Viessmann\API</title>
<path fill="none" stroke="gray" d="M36,-60C36,-60 754,-60 754,-60 760,-60 766,-66 766,-72 766,-72 766,-398 766,-398 766,-404 760,-410 754,-410 754,-410 36,-410 36,-410 30,-410 24,-404 24,-398 24,-398 24,-72 24,-72 24,-66 30,-60 36,-60"/>
<text text-anchor="middle" x="395" y="-397.2" font-family="Times,serif" font-size="11.00" fill="gray">API</text>
</g>
<g id="clust4" class="cluster">
<title>cluster_\Viessmann\API\proxy</title>
<path fill="none" stroke="gray" d="M44,-220C44,-220 746,-220 746,-220 752,-220 758,-226 758,-232 758,-232 758,-370 758,-370 758,-376 752,-382 746,-382 746,-382 44,-382 44,-382 38,-382 32,-376 32,-370 32,-370 32,-232 32,-232 32,-226 38,-220 44,-220"/>
<text text-anchor="middle" x="395" y="-369.2" font-family="Times,serif" font-size="11.00" fill="gray">proxy</text>
</g>
<g id="clust5" class="cluster">
<title>cluster_\Viessmann\API\proxy\impl</title>
<path fill="none" stroke="gray" d="M271,-228C271,-228 738,-228 738,-228 744,-228 750,-234 750,-240 750,-240 750,-342 750,-342 750,-348 744,-354 738,-354 738,-354 271,-354 271,-354 265,-354 259,-348 259,-342 259,-342 259,-240 259,-240 259,-234 265,-228 271,-228"/>
<text text-anchor="middle" x="504.5" y="-341.2" font-family="Times,serif" font-size="11.00" fill="gray">impl</text>
</g>
<!-- \\Viessmann\\API\\proxy\\impl\\ViessmannFeatureLocalProxy -->
<g id="node1" class="node">
<title>\\Viessmann\\API\\proxy\\impl\\ViessmannFeatureLocalProxy</title>
<polygon fill="none" stroke="black" points="738.5,-326 550.5,-326 550.5,-290 738.5,-290 738.5,-326"/>
<text text-anchor="middle" x="644.5" y="-305.2" font-family="Courier,monospace" font-size="11.00">ViessmannFeatureLocalProxy</text>
</g>
<!-- \\Viessmann\\API\\proxy\\impl\\ViessmannFeatureAbstractProxy -->
<g id="node3" class="node">
<title>\\Viessmann\\API\\proxy\\impl\\ViessmannFeatureAbstractProxy</title>
<polygon fill="none" stroke="black" points="475,-299 267,-299 267,-263 475,-263 475,-299"/>
<text text-anchor="start" x="337.5" y="-284.2" font-family="Courier,monospace" font-size="11.00">«abstract»</text>
<text text-anchor="start" x="275" y="-272.2" font-family="Courier,monospace" font-size="11.00">ViessmannFeatureAbstractProxy</text>
</g>
<!-- \\Viessmann\\API\\proxy\\impl\\ViessmannFeatureLocalProxy&#45;&gt;\\Viessmann\\API\\proxy\\impl\\ViessmannFeatureAbstractProxy -->
<g id="edge1" class="edge">
<title>\\Viessmann\\API\\proxy\\impl\\ViessmannFeatureLocalProxy&#45;&gt;\\Viessmann\\API\\proxy\\impl\\ViessmannFeatureAbstractProxy</title>
<path fill="none" stroke="black" d="M550.44,-298.75C529.51,-296.66 507.06,-294.43 485.4,-292.28"/>
<polygon fill="none" stroke="black" points="485.47,-288.77 475.17,-291.26 484.77,-295.73 485.47,-288.77"/>
</g>
<!-- \\Viessmann\\API\\proxy\\impl\\ViessmannFeatureRemoteProxy -->
<g id="node2" class="node">
<title>\\Viessmann\\API\\proxy\\impl\\ViessmannFeatureRemoteProxy</title>
<polygon fill="none" stroke="black" points="742,-272 547,-272 547,-236 742,-236 742,-272"/>
<text text-anchor="middle" x="644.5" y="-251.2" font-family="Courier,monospace" font-size="11.00">ViessmannFeatureRemoteProxy</text>
</g>
<!-- \\Viessmann\\API\\proxy\\impl\\ViessmannFeatureRemoteProxy&#45;&gt;\\Viessmann\\API\\proxy\\impl\\ViessmannFeatureAbstractProxy -->
<g id="edge3" class="edge">
<title>\\Viessmann\\API\\proxy\\impl\\ViessmannFeatureRemoteProxy&#45;&gt;\\Viessmann\\API\\proxy\\impl\\ViessmannFeatureAbstractProxy</title>
<path fill="none" stroke="black" d="M546.63,-263.63C526.74,-265.61 505.63,-267.71 485.22,-269.74"/>
<polygon fill="none" stroke="black" points="484.87,-266.26 475.27,-270.73 485.56,-273.22 484.87,-266.26"/>
</g>
<!-- \\Viessmann\\API\\proxy\\ViessmannFeatureProxy -->
<g id="node4" class="node">
<title>\\Viessmann\\API\\proxy\\ViessmannFeatureProxy</title>
<polygon fill="none" stroke="black" points="195,-299 40,-299 40,-263 195,-263 195,-299"/>
<text text-anchor="middle" x="117.5" y="-278.2" font-family="Courier,monospace" font-size="11.00">ViessmannFeatureProxy</text>
</g>
<!-- \\Viessmann\\API\\proxy\\impl\\ViessmannFeatureAbstractProxy&#45;&gt;\\Viessmann\\API\\proxy\\ViessmannFeatureProxy -->
<g id="edge4" class="edge">
<title>\\Viessmann\\API\\proxy\\impl\\ViessmannFeatureAbstractProxy&#45;&gt;\\Viessmann\\API\\proxy\\ViessmannFeatureProxy</title>
<path fill="none" stroke="black" stroke-dasharray="1,5" d="M266.98,-281C246.53,-281 225.26,-281 205.41,-281"/>
<polygon fill="none" stroke="black" points="205.18,-277.5 195.18,-281 205.18,-284.5 205.18,-277.5"/>
</g>
<!-- \\Viessmann\\API\\ViessmannApiException -->
<g id="node5" class="node">
<title>\\Viessmann\\API\\ViessmannApiException</title>
<polygon fill="none" stroke="black" points="722,-212 567,-212 567,-176 722,-176 722,-212"/>
<text text-anchor="middle" x="644.5" y="-191.2" font-family="Courier,monospace" font-size="11.00">ViessmannApiException</text>
</g>
<!-- \\Exception -->
<g id="node8" class="node">
<title>\\Exception</title>
<ellipse fill="none" stroke="black" cx="371" cy="-18" rx="50.09" ry="18"/>
<text text-anchor="middle" x="371" y="-14.3" font-family="Times,serif" font-size="14.00" fill="gray">\Exception</text>
</g>
<!-- \\Viessmann\\API\\ViessmannApiException&#45;&gt;\\Exception -->
<g id="edge2" class="edge">
<title>\\Viessmann\\API\\ViessmannApiException&#45;&gt;\\Exception</title>
<path fill="none" stroke="black" d="M566.96,-175.95C560.05,-173.32 553.3,-170.35 547,-167 485.04,-134.03 425.61,-76.02 394.48,-42.95"/>
<polygon fill="none" stroke="black" points="396.93,-40.44 387.55,-35.5 391.8,-45.21 396.93,-40.44"/>
</g>
<!-- \\Viessmann\\API\\ViessmannAPI -->
<g id="node6" class="node">
<title>\\Viessmann\\API\\ViessmannAPI</title>
<polygon fill="none" stroke="black" points="692.5,-158 596.5,-158 596.5,-122 692.5,-122 692.5,-158"/>
<text text-anchor="middle" x="644.5" y="-137.2" font-family="Courier,monospace" font-size="11.00">ViessmannAPI</text>
</g>
<!-- \\Viessmann\\API\\ViessmannFeature -->
<g id="node7" class="node">
<title>\\Viessmann\\API\\ViessmannFeature</title>
<polygon fill="none" stroke="black" points="705.5,-104 583.5,-104 583.5,-68 705.5,-68 705.5,-104"/>
<text text-anchor="middle" x="644.5" y="-83.2" font-family="Courier,monospace" font-size="11.00">ViessmannFeature</text>
</g>
</g>
</svg>
