<?xml version="1.0" encoding="UTF-8" standalone="no"?>
<!DOCTYPE svg PUBLIC "-//W3C//DTD SVG 1.1//EN"
 "http://www.w3.org/Graphics/SVG/1.1/DTD/svg11.dtd">
<!-- Generated by graphviz version 2.40.1 (20161225.0304)
 -->
<!-- Title: G Pages: 1 -->
<svg width="703pt" height="338pt"
 viewBox="0.00 0.00 702.67 338.00" xmlns="http://www.w3.org/2000/svg" xmlns:xlink="http://www.w3.org/1999/xlink">
<g id="graph0" class="graph" transform="scale(1 1) rotate(0) translate(4 334)">
<title>G</title>
<polygon fill="#ffffff" stroke="transparent" points="-4,4 -4,-334 698.6678,-334 698.6678,4 -4,4"/>
<g id="clust1" class="cluster">
<title>cluster_Global</title>
<path fill="none" stroke="#c0c0c0" d="M406.6678,-8C406.6678,-8 674.6678,-8 674.6678,-8 680.6678,-8 686.6678,-14 686.6678,-20 686.6678,-20 686.6678,-310 686.6678,-310 686.6678,-316 680.6678,-322 674.6678,-322 674.6678,-322 406.6678,-322 406.6678,-322 400.6678,-322 394.6678,-316 394.6678,-310 394.6678,-310 394.6678,-20 394.6678,-20 394.6678,-14 400.6678,-8 406.6678,-8"/>
<text text-anchor="middle" x="540.6678" y="-309.2" font-family="Times,serif" font-size="11.00" fill="#c0c0c0">Global</text>
</g>
<g id="clust2" class="cluster">
<title>cluster_\Viessmann</title>
<path fill="none" stroke="#c0c0c0" d="M414.6678,-16C414.6678,-16 666.6678,-16 666.6678,-16 672.6678,-16 678.6678,-22 678.6678,-28 678.6678,-28 678.6678,-282 678.6678,-282 678.6678,-288 672.6678,-294 666.6678,-294 666.6678,-294 414.6678,-294 414.6678,-294 408.6678,-294 402.6678,-288 402.6678,-282 402.6678,-282 402.6678,-28 402.6678,-28 402.6678,-22 408.6678,-16 414.6678,-16"/>
<text text-anchor="middle" x="540.6678" y="-281.2" font-family="Times,serif" font-size="11.00" fill="#c0c0c0">Viessmann</text>
</g>
<g id="clust3" class="cluster">
<title>cluster_\Viessmann\API</title>
<path fill="none" stroke="#c0c0c0" d="M422.6678,-24C422.6678,-24 658.6678,-24 658.6678,-24 664.6678,-24 670.6678,-30 670.6678,-36 670.6678,-36 670.6678,-254 670.6678,-254 670.6678,-260 664.6678,-266 658.6678,-266 658.6678,-266 422.6678,-266 422.6678,-266 416.6678,-266 410.6678,-260 410.6678,-254 410.6678,-254 410.6678,-36 410.6678,-36 410.6678,-30 416.6678,-24 422.6678,-24"/>
<text text-anchor="middle" x="540.6678" y="-253.2" font-family="Times,serif" font-size="11.00" fill="#c0c0c0">API</text>
</g>
<g id="clust4" class="cluster">
<title>cluster_\Viessmann\API\proxy</title>
<path fill="none" stroke="#c0c0c0" d="M430.6678,-130C430.6678,-130 650.6678,-130 650.6678,-130 656.6678,-130 662.6678,-136 662.6678,-142 662.6678,-142 662.6678,-226 662.6678,-226 662.6678,-232 656.6678,-238 650.6678,-238 650.6678,-238 430.6678,-238 430.6678,-238 424.6678,-238 418.6678,-232 418.6678,-226 418.6678,-226 418.6678,-142 418.6678,-142 418.6678,-136 424.6678,-130 430.6678,-130"/>
<text text-anchor="middle" x="540.6678" y="-225.2" font-family="Times,serif" font-size="11.00" fill="#c0c0c0">proxy</text>
</g>
<g id="clust5" class="cluster">
<title>cluster_\Viessmann\API\proxy\impl</title>
<path fill="none" stroke="#c0c0c0" d="M438.6678,-138C438.6678,-138 642.6678,-138 642.6678,-138 648.6678,-138 654.6678,-144 654.6678,-150 654.6678,-150 654.6678,-198 654.6678,-198 654.6678,-204 648.6678,-210 642.6678,-210 642.6678,-210 438.6678,-210 438.6678,-210 432.6678,-210 426.6678,-204 426.6678,-198 426.6678,-198 426.6678,-150 426.6678,-150 426.6678,-144 432.6678,-138 438.6678,-138"/>
<text text-anchor="middle" x="540.6678" y="-197.2" font-family="Times,serif" font-size="11.00" fill="#c0c0c0">impl</text>
</g>
<!-- \\Viessmann\\API\\proxy\\impl\\ViessmannFeatureAbstractProxy -->
<g id="node1" class="node">
<title>\\Viessmann\\API\\proxy\\impl\\ViessmannFeatureAbstractProxy</title>
<polygon fill="none" stroke="#000000" points="646.6678,-182 434.6678,-182 434.6678,-146 646.6678,-146 646.6678,-182"/>
<text text-anchor="start" x="506.6678" y="-167.2" font-family="Courier,monospace" font-size="11.00" fill="#000000">«abstract»</text>
<text text-anchor="start" x="442.6678" y="-155.2" font-family="Courier,monospace" font-size="11.00" fill="#000000">ViessmannFeatureAbstractProxy</text>
</g>
<!-- \\Viessmann\\API\\proxy\\ViessmannFeatureProxy -->
<g id="node5" class="node">
<title>\\Viessmann\\API\\proxy\\ViessmannFeatureProxy</title>
<ellipse fill="none" stroke="#000000" cx="181.3339" cy="-164" rx="181.168" ry="18"/>
<text text-anchor="middle" x="181.3339" y="-160.3" font-family="Times,serif" font-size="14.00" fill="#c0c0c0">\Viessmann\API\proxy\ViessmannFeatureProxy</text>
</g>
<!-- \\Viessmann\\API\\proxy\\impl\\ViessmannFeatureAbstractProxy&#45;&gt;\\Viessmann\\API\\proxy\\ViessmannFeatureProxy -->
<g id="edge2" class="edge">
<title>\\Viessmann\\API\\proxy\\impl\\ViessmannFeatureAbstractProxy&#45;&gt;\\Viessmann\\API\\proxy\\ViessmannFeatureProxy</title>
<path fill="none" stroke="#000000" stroke-dasharray="1,5" d="M434.3143,-164C414.8407,-164 393.9801,-164 372.9002,-164"/>
<polygon fill="none" stroke="#000000" points="372.873,-160.5001 362.8729,-164 372.8729,-167.5001 372.873,-160.5001"/>
</g>
<!-- \\Viessmann\\API\\ViessmannApiException -->
<g id="node2" class="node">
<title>\\Viessmann\\API\\ViessmannApiException</title>
<polygon fill="none" stroke="#000000" points="619.6678,-122 461.6678,-122 461.6678,-86 619.6678,-86 619.6678,-122"/>
<text text-anchor="middle" x="540.6678" y="-101.2" font-family="Courier,monospace" font-size="11.00" fill="#000000">ViessmannApiException</text>
</g>
<!-- \\Exception -->
<g id="node4" class="node">
<title>\\Exception</title>
<ellipse fill="none" stroke="#000000" cx="181.3339" cy="-104" rx="48.9926" ry="18"/>
<text text-anchor="middle" x="181.3339" y="-100.3" font-family="Times,serif" font-size="14.00" fill="#c0c0c0">\Exception</text>
</g>
<!-- \\Viessmann\\API\\ViessmannApiException&#45;&gt;\\Exception -->
<g id="edge1" class="edge">
<title>\\Viessmann\\API\\ViessmannApiException&#45;&gt;\\Exception</title>
<path fill="none" stroke="#000000" d="M461.3656,-104C394.6444,-104 300.734,-104 240.446,-104"/>
<polygon fill="none" stroke="#000000" points="240.3321,-100.5001 230.3321,-104 240.3321,-107.5001 240.3321,-100.5001"/>
</g>
<!-- \\Viessmann\\API\\ViessmannFeature -->
<g id="node3" class="node">
<title>\\Viessmann\\API\\ViessmannFeature</title>
<polygon fill="none" stroke="#000000" points="603.1678,-68 478.1678,-68 478.1678,-32 603.1678,-32 603.1678,-68"/>
<text text-anchor="middle" x="540.6678" y="-47.2" font-family="Courier,monospace" font-size="11.00" fill="#000000">ViessmannFeature</text>
</g>
</g>
</svg>
