<?xml version="1.0" encoding="UTF-8" standalone="no"?>
<!DOCTYPE svg PUBLIC "-//W3C//DTD SVG 1.1//EN"
 "http://www.w3.org/Graphics/SVG/1.1/DTD/svg11.dtd">
<!-- Generated by graphviz version 2.40.1 (20161225.0304)
 -->
<!-- Title: G Pages: 1 -->
<svg width="367pt" height="276pt"
 viewBox="0.00 0.00 367.49 276.00" xmlns="http://www.w3.org/2000/svg" xmlns:xlink="http://www.w3.org/1999/xlink">
<g id="graph0" class="graph" transform="scale(1 1) rotate(0) translate(4 272)">
<title>G</title>
<polygon fill="#ffffff" stroke="transparent" points="-4,4 -4,-272 363.4913,-272 363.4913,4 -4,4"/>
<g id="clust1" class="cluster">
<title>cluster_Global</title>
<path fill="none" stroke="#c0c0c0" d="M157.4913,-8C157.4913,-8 339.4913,-8 339.4913,-8 345.4913,-8 351.4913,-14 351.4913,-20 351.4913,-20 351.4913,-248 351.4913,-248 351.4913,-254 345.4913,-260 339.4913,-260 339.4913,-260 157.4913,-260 157.4913,-260 151.4913,-260 145.4913,-254 145.4913,-248 145.4913,-248 145.4913,-20 145.4913,-20 145.4913,-14 151.4913,-8 157.4913,-8"/>
<text text-anchor="middle" x="248.4913" y="-247.2" font-family="Times,serif" font-size="11.00" fill="#c0c0c0">Global</text>
</g>
<g id="clust2" class="cluster">
<title>cluster_\Viessmann</title>
<path fill="none" stroke="#c0c0c0" d="M165.4913,-16C165.4913,-16 331.4913,-16 331.4913,-16 337.4913,-16 343.4913,-22 343.4913,-28 343.4913,-28 343.4913,-220 343.4913,-220 343.4913,-226 337.4913,-232 331.4913,-232 331.4913,-232 165.4913,-232 165.4913,-232 159.4913,-232 153.4913,-226 153.4913,-220 153.4913,-220 153.4913,-28 153.4913,-28 153.4913,-22 159.4913,-16 165.4913,-16"/>
<text text-anchor="middle" x="248.4913" y="-219.2" font-family="Times,serif" font-size="11.00" fill="#c0c0c0">Viessmann</text>
</g>
<g id="clust3" class="cluster">
<title>cluster_\Viessmann\API</title>
<path fill="none" stroke="#c0c0c0" d="M173.4913,-24C173.4913,-24 323.4913,-24 323.4913,-24 329.4913,-24 335.4913,-30 335.4913,-36 335.4913,-36 335.4913,-192 335.4913,-192 335.4913,-198 329.4913,-204 323.4913,-204 323.4913,-204 173.4913,-204 173.4913,-204 167.4913,-204 161.4913,-198 161.4913,-192 161.4913,-192 161.4913,-36 161.4913,-36 161.4913,-30 167.4913,-24 173.4913,-24"/>
<text text-anchor="middle" x="248.4913" y="-191.2" font-family="Times,serif" font-size="11.00" fill="#c0c0c0">API</text>
</g>
<!-- \\Viessmann\\API\\ViessmannApiException -->
<g id="node1" class="node">
<title>\\Viessmann\\API\\ViessmannApiException</title>
<polygon fill="none" stroke="#000000" points="327.4913,-176 169.4913,-176 169.4913,-140 327.4913,-140 327.4913,-176"/>
<text text-anchor="middle" x="248.4913" y="-155.2" font-family="Courier,monospace" font-size="11.00" fill="#000000">ViessmannApiException</text>
</g>
<!-- \\Exception -->
<g id="node4" class="node">
<title>\\Exception</title>
<ellipse fill="none" stroke="#000000" cx="48.7457" cy="-158" rx="48.9926" ry="18"/>
<text text-anchor="middle" x="48.7457" y="-154.3" font-family="Times,serif" font-size="14.00" fill="#c0c0c0">\Exception</text>
</g>
<!-- \\Viessmann\\API\\ViessmannApiException&#45;&gt;\\Exception -->
<g id="edge1" class="edge">
<title>\\Viessmann\\API\\ViessmannApiException&#45;&gt;\\Exception</title>
<path fill="none" stroke="#000000" d="M169.2597,-158C148.7629,-158 127.0532,-158 107.7911,-158"/>
<polygon fill="none" stroke="#000000" points="107.6639,-154.5001 97.6639,-158 107.6639,-161.5001 107.6639,-154.5001"/>
</g>
<!-- \\Viessmann\\API\\ViessmannAPI -->
<g id="node2" class="node">
<title>\\Viessmann\\API\\ViessmannAPI</title>
<polygon fill="none" stroke="#000000" points="297.4913,-122 199.4913,-122 199.4913,-86 297.4913,-86 297.4913,-122"/>
<text text-anchor="middle" x="248.4913" y="-101.2" font-family="Courier,monospace" font-size="11.00" fill="#000000">ViessmannAPI</text>
</g>
<!-- \\Viessmann\\API\\ViessmannFeature -->
<g id="node3" class="node">
<title>\\Viessmann\\API\\ViessmannFeature</title>
<polygon fill="none" stroke="#000000" points="310.9913,-68 185.9913,-68 185.9913,-32 310.9913,-32 310.9913,-68"/>
<text text-anchor="middle" x="248.4913" y="-47.2" font-family="Courier,monospace" font-size="11.00" fill="#000000">ViessmannFeature</text>
</g>
</g>
</svg>
