<?xml version="1.0" encoding="UTF-8" standalone="no"?>
<!DOCTYPE svg PUBLIC "-//W3C//DTD SVG 1.1//EN"
 "http://www.w3.org/Graphics/SVG/1.1/DTD/svg11.dtd">
<!-- Generated by graphviz version 2.40.1 (20161225.0304)
 -->
<!-- Title: G Pages: 1 -->
<svg width="809pt" height="482pt"
 viewBox="0.00 0.00 809.00 482.00" xmlns="http://www.w3.org/2000/svg" xmlns:xlink="http://www.w3.org/1999/xlink">
<g id="graph0" class="graph" transform="scale(1 1) rotate(0) translate(4 478)">
<title>G</title>
<polygon fill="#ffffff" stroke="transparent" points="-4,4 -4,-478 805,-478 805,4 -4,4"/>
<g id="clust1" class="cluster">
<title>cluster_Global</title>
<path fill="none" stroke="#c0c0c0" d="M20,-44C20,-44 781,-44 781,-44 787,-44 793,-50 793,-56 793,-56 793,-454 793,-454 793,-460 787,-466 781,-466 781,-466 20,-466 20,-466 14,-466 8,-460 8,-454 8,-454 8,-56 8,-56 8,-50 14,-44 20,-44"/>
<text text-anchor="middle" x="400.5" y="-453.2" font-family="Times,serif" font-size="11.00" fill="#c0c0c0">Global</text>
</g>
<g id="clust2" class="cluster">
<title>cluster_\Viessmann</title>
<path fill="none" stroke="#c0c0c0" d="M28,-52C28,-52 773,-52 773,-52 779,-52 785,-58 785,-64 785,-64 785,-426 785,-426 785,-432 779,-438 773,-438 773,-438 28,-438 28,-438 22,-438 16,-432 16,-426 16,-426 16,-64 16,-64 16,-58 22,-52 28,-52"/>
<text text-anchor="middle" x="400.5" y="-425.2" font-family="Times,serif" font-size="11.00" fill="#c0c0c0">Viessmann</text>
</g>
<g id="clust3" class="cluster">
<title>cluster_\Viessmann\API</title>
<path fill="none" stroke="#c0c0c0" d="M36,-60C36,-60 765,-60 765,-60 771,-60 777,-66 777,-72 777,-72 777,-398 777,-398 777,-404 771,-410 765,-410 765,-410 36,-410 36,-410 30,-410 24,-404 24,-398 24,-398 24,-72 24,-72 24,-66 30,-60 36,-60"/>
<text text-anchor="middle" x="400.5" y="-397.2" font-family="Times,serif" font-size="11.00" fill="#c0c0c0">API</text>
</g>
<g id="clust4" class="cluster">
<title>cluster_\Viessmann\API\proxy</title>
<path fill="none" stroke="#c0c0c0" d="M44,-220C44,-220 757,-220 757,-220 763,-220 769,-226 769,-232 769,-232 769,-370 769,-370 769,-376 763,-382 757,-382 757,-382 44,-382 44,-382 38,-382 32,-376 32,-370 32,-370 32,-232 32,-232 32,-226 38,-220 44,-220"/>
<text text-anchor="middle" x="400.5" y="-369.2" font-family="Times,serif" font-size="11.00" fill="#c0c0c0">proxy</text>
</g>
<g id="clust5" class="cluster">
<title>cluster_\Viessmann\API\proxy\impl</title>
<path fill="none" stroke="#c0c0c0" d="M274,-228C274,-228 749,-228 749,-228 755,-228 761,-234 761,-240 761,-240 761,-342 761,-342 761,-348 755,-354 749,-354 749,-354 274,-354 274,-354 268,-354 262,-348 262,-342 262,-342 262,-240 262,-240 262,-234 268,-228 274,-228"/>
<text text-anchor="middle" x="511.5" y="-341.2" font-family="Times,serif" font-size="11.00" fill="#c0c0c0">impl</text>
</g>
<!-- \\Viessmann\\API\\proxy\\impl\\ViessmannFeatureLocalProxy -->
<g id="node1" class="node">
<title>\\Viessmann\\API\\proxy\\impl\\ViessmannFeatureLocalProxy</title>
<polygon fill="none" stroke="#000000" points="749.5,-326 557.5,-326 557.5,-290 749.5,-290 749.5,-326"/>
<text text-anchor="middle" x="653.5" y="-305.2" font-family="Courier,monospace" font-size="11.00" fill="#000000">ViessmannFeatureLocalProxy</text>
</g>
<!-- \\Viessmann\\API\\proxy\\impl\\ViessmannFeatureAbstractProxy -->
<g id="node3" class="node">
<title>\\Viessmann\\API\\proxy\\impl\\ViessmannFeatureAbstractProxy</title>
<polygon fill="none" stroke="#000000" points="482,-299 270,-299 270,-263 482,-263 482,-299"/>
<text text-anchor="start" x="342" y="-284.2" font-family="Courier,monospace" font-size="11.00" fill="#000000">«abstract»</text>
<text text-anchor="start" x="278" y="-272.2" font-family="Courier,monospace" font-size="11.00" fill="#000000">ViessmannFeatureAbstractProxy</text>
</g>
<!-- \\Viessmann\\API\\proxy\\impl\\ViessmannFeatureLocalProxy&#45;&gt;\\Viessmann\\API\\proxy\\impl\\ViessmannFeatureAbstractProxy -->
<g id="edge1" class="edge">
<title>\\Viessmann\\API\\proxy\\impl\\ViessmannFeatureLocalProxy&#45;&gt;\\Viessmann\\API\\proxy\\impl\\ViessmannFeatureAbstractProxy</title>
<path fill="none" stroke="#000000" d="M557.2228,-298.6325C536.2763,-296.5945 513.9007,-294.4174 492.2735,-292.3131"/>
<polygon fill="none" stroke="#000000" points="492.355,-288.8046 482.0631,-291.3196 491.6771,-295.7717 492.355,-288.8046"/>
</g>
<!-- \\Viessmann\\API\\proxy\\impl\\ViessmannFeatureRemoteProxy -->
<g id="node2" class="node">
<title>\\Viessmann\\API\\proxy\\impl\\ViessmannFeatureRemoteProxy</title>
<polygon fill="none" stroke="#000000" points="753,-272 554,-272 554,-236 753,-236 753,-272"/>
<text text-anchor="middle" x="653.5" y="-251.2" font-family="Courier,monospace" font-size="11.00" fill="#000000">ViessmannFeatureRemoteProxy</text>
</g>
<!-- \\Viessmann\\API\\proxy\\impl\\ViessmannFeatureRemoteProxy&#45;&gt;\\Viessmann\\API\\proxy\\impl\\ViessmannFeatureAbstractProxy -->
<g id="edge3" class="edge">
<title>\\Viessmann\\API\\proxy\\impl\\ViessmannFeatureRemoteProxy&#45;&gt;\\Viessmann\\API\\proxy\\impl\\ViessmannFeatureAbstractProxy</title>
<path fill="none" stroke="#000000" d="M553.7082,-263.7095C533.9022,-265.6365 512.9437,-267.6757 492.6341,-269.6518"/>
<polygon fill="none" stroke="#000000" points="492.0185,-266.1951 482.4045,-270.6471 492.6965,-273.1622 492.0185,-266.1951"/>
</g>
<!-- \\Viessmann\\API\\proxy\\ViessmannFeatureProxy -->
<g id="node4" class="node">
<title>\\Viessmann\\API\\proxy\\ViessmannFeatureProxy</title>
<polygon fill="none" stroke="#000000" points="198,-299 40,-299 40,-263 198,-263 198,-299"/>
<text text-anchor="middle" x="119" y="-278.2" font-family="Courier,monospace" font-size="11.00" fill="#000000">ViessmannFeatureProxy</text>
</g>
<!-- \\Viessmann\\API\\proxy\\impl\\ViessmannFeatureAbstractProxy&#45;&gt;\\Viessmann\\API\\proxy\\ViessmannFeatureProxy -->
<g id="edge4" class="edge">
<title>\\Viessmann\\API\\proxy\\impl\\ViessmannFeatureAbstractProxy&#45;&gt;\\Viessmann\\API\\proxy\\ViessmannFeatureProxy</title>
<path fill="none" stroke="#000000" stroke-dasharray="1,5" d="M269.9845,-281C249.497,-281 228.2224,-281 208.3322,-281"/>
<polygon fill="none" stroke="#000000" points="208.0686,-277.5001 198.0686,-281 208.0685,-284.5001 208.0686,-277.5001"/>
</g>
<!-- \\Viessmann\\API\\ViessmannApiException -->
<g id="node5" class="node">
<title>\\Viessmann\\API\\ViessmannApiException</title>
<polygon fill="none" stroke="#000000" points="732.5,-212 574.5,-212 574.5,-176 732.5,-176 732.5,-212"/>
<text text-anchor="middle" x="653.5" y="-191.2" font-family="Courier,monospace" font-size="11.00" fill="#000000">ViessmannApiException</text>
</g>
<!-- \\Exception -->
<g id="node8" class="node">
<title>\\Exception</title>
<ellipse fill="none" stroke="#000000" cx="376" cy="-18" rx="48.9926" ry="18"/>
<text text-anchor="middle" x="376" y="-14.3" font-family="Times,serif" font-size="14.00" fill="#c0c0c0">\Exception</text>
</g>
<!-- \\Viessmann\\API\\ViessmannApiException&#45;&gt;\\Exception -->
<g id="edge2" class="edge">
<title>\\Viessmann\\API\\ViessmannApiException&#45;&gt;\\Exception</title>
<path fill="none" stroke="#000000" d="M574.3453,-175.9429C567.3103,-173.322 560.4267,-170.3537 554,-167 491.1541,-134.205 430.6357,-76.1326 398.9166,-43.002"/>
<polygon fill="none" stroke="#000000" points="401.2721,-40.399 391.8568,-35.5407 396.1874,-45.2101 401.2721,-40.399"/>
</g>
<!-- \\Viessmann\\API\\ViessmannAPI -->
<g id="node6" class="node">
<title>\\Viessmann\\API\\ViessmannAPI</title>
<polygon fill="none" stroke="#000000" points="702.5,-158 604.5,-158 604.5,-122 702.5,-122 702.5,-158"/>
<text text-anchor="middle" x="653.5" y="-137.2" font-family="Courier,monospace" font-size="11.00" fill="#000000">ViessmannAPI</text>
</g>
<!-- \\Viessmann\\API\\ViessmannFeature -->
<g id="node7" class="node">
<title>\\Viessmann\\API\\ViessmannFeature</title>
<polygon fill="none" stroke="#000000" points="716,-104 591,-104 591,-68 716,-68 716,-104"/>
<text text-anchor="middle" x="653.5" y="-83.2" font-family="Courier,monospace" font-size="11.00" fill="#000000">ViessmannFeature</text>
</g>
</g>
</svg>
