<?xml version="1.0" encoding="UTF-8" standalone="no"?>
<!DOCTYPE svg PUBLIC "-//W3C//DTD SVG 1.1//EN"
 "http://www.w3.org/Graphics/SVG/1.1/DTD/svg11.dtd">
<!-- Generated by graphviz version 2.40.1 (20161225.0304)
 -->
<!-- Title: G Pages: 1 -->
<svg width="703pt" height="392pt"
 viewBox="0.00 0.00 702.67 392.00" xmlns="http://www.w3.org/2000/svg" xmlns:xlink="http://www.w3.org/1999/xlink">
<g id="graph0" class="graph" transform="scale(1 1) rotate(0) translate(4 388)">
<title>G</title>
<polygon fill="#ffffff" stroke="transparent" points="-4,4 -4,-388 698.6678,-388 698.6678,4 -4,4"/>
<g id="clust1" class="cluster">
<title>cluster_Global</title>
<path fill="none" stroke="#c0c0c0" d="M406.6678,-8C406.6678,-8 674.6678,-8 674.6678,-8 680.6678,-8 686.6678,-14 686.6678,-20 686.6678,-20 686.6678,-364 686.6678,-364 686.6678,-370 680.6678,-376 674.6678,-376 674.6678,-376 406.6678,-376 406.6678,-376 400.6678,-376 394.6678,-370 394.6678,-364 394.6678,-364 394.6678,-20 394.6678,-20 394.6678,-14 400.6678,-8 406.6678,-8"/>
<text text-anchor="middle" x="540.6678" y="-363.2" font-family="Times,serif" font-size="11.00" fill="#c0c0c0">Global</text>
</g>
<g id="clust2" class="cluster">
<title>cluster_\Viessmann</title>
<path fill="none" stroke="#c0c0c0" d="M414.6678,-16C414.6678,-16 666.6678,-16 666.6678,-16 672.6678,-16 678.6678,-22 678.6678,-28 678.6678,-28 678.6678,-336 678.6678,-336 678.6678,-342 672.6678,-348 666.6678,-348 666.6678,-348 414.6678,-348 414.6678,-348 408.6678,-348 402.6678,-342 402.6678,-336 402.6678,-336 402.6678,-28 402.6678,-28 402.6678,-22 408.6678,-16 414.6678,-16"/>
<text text-anchor="middle" x="540.6678" y="-335.2" font-family="Times,serif" font-size="11.00" fill="#c0c0c0">Viessmann</text>
</g>
<g id="clust3" class="cluster">
<title>cluster_\Viessmann\API</title>
<path fill="none" stroke="#c0c0c0" d="M422.6678,-24C422.6678,-24 658.6678,-24 658.6678,-24 664.6678,-24 670.6678,-30 670.6678,-36 670.6678,-36 670.6678,-308 670.6678,-308 670.6678,-314 664.6678,-320 658.6678,-320 658.6678,-320 422.6678,-320 422.6678,-320 416.6678,-320 410.6678,-314 410.6678,-308 410.6678,-308 410.6678,-36 410.6678,-36 410.6678,-30 416.6678,-24 422.6678,-24"/>
<text text-anchor="middle" x="540.6678" y="-307.2" font-family="Times,serif" font-size="11.00" fill="#c0c0c0">API</text>
</g>
<g id="clust4" class="cluster">
<title>cluster_\Viessmann\API\proxy</title>
<path fill="none" stroke="#c0c0c0" d="M430.6678,-184C430.6678,-184 650.6678,-184 650.6678,-184 656.6678,-184 662.6678,-190 662.6678,-196 662.6678,-196 662.6678,-280 662.6678,-280 662.6678,-286 656.6678,-292 650.6678,-292 650.6678,-292 430.6678,-292 430.6678,-292 424.6678,-292 418.6678,-286 418.6678,-280 418.6678,-280 418.6678,-196 418.6678,-196 418.6678,-190 424.6678,-184 430.6678,-184"/>
<text text-anchor="middle" x="540.6678" y="-279.2" font-family="Times,serif" font-size="11.00" fill="#c0c0c0">proxy</text>
</g>
<g id="clust5" class="cluster">
<title>cluster_\Viessmann\API\proxy\impl</title>
<path fill="none" stroke="#c0c0c0" d="M438.6678,-192C438.6678,-192 642.6678,-192 642.6678,-192 648.6678,-192 654.6678,-198 654.6678,-204 654.6678,-204 654.6678,-252 654.6678,-252 654.6678,-258 648.6678,-264 642.6678,-264 642.6678,-264 438.6678,-264 438.6678,-264 432.6678,-264 426.6678,-258 426.6678,-252 426.6678,-252 426.6678,-204 426.6678,-204 426.6678,-198 432.6678,-192 438.6678,-192"/>
<text text-anchor="middle" x="540.6678" y="-251.2" font-family="Times,serif" font-size="11.00" fill="#c0c0c0">impl</text>
</g>
<!-- \\Viessmann\\API\\proxy\\impl\\ViessmannFeatureAbstractProxy -->
<g id="node1" class="node">
<title>\\Viessmann\\API\\proxy\\impl\\ViessmannFeatureAbstractProxy</title>
<polygon fill="none" stroke="#000000" points="646.6678,-236 434.6678,-236 434.6678,-200 646.6678,-200 646.6678,-236"/>
<text text-anchor="start" x="506.6678" y="-221.2" font-family="Courier,monospace" font-size="11.00" fill="#000000">«abstract»</text>
<text text-anchor="start" x="442.6678" y="-209.2" font-family="Courier,monospace" font-size="11.00" fill="#000000">ViessmannFeatureAbstractProxy</text>
</g>
<!-- \\Viessmann\\API\\proxy\\ViessmannFeatureProxy -->
<g id="node6" class="node">
<title>\\Viessmann\\API\\proxy\\ViessmannFeatureProxy</title>
<ellipse fill="none" stroke="#000000" cx="181.3339" cy="-218" rx="181.168" ry="18"/>
<text text-anchor="middle" x="181.3339" y="-214.3" font-family="Times,serif" font-size="14.00" fill="#c0c0c0">\Viessmann\API\proxy\ViessmannFeatureProxy</text>
</g>
<!-- \\Viessmann\\API\\proxy\\impl\\ViessmannFeatureAbstractProxy&#45;&gt;\\Viessmann\\API\\proxy\\ViessmannFeatureProxy -->
<g id="edge2" class="edge">
<title>\\Viessmann\\API\\proxy\\impl\\ViessmannFeatureAbstractProxy&#45;&gt;\\Viessmann\\API\\proxy\\ViessmannFeatureProxy</title>
<path fill="none" stroke="#000000" stroke-dasharray="1,5" d="M434.3143,-218C414.8407,-218 393.9801,-218 372.9002,-218"/>
<polygon fill="none" stroke="#000000" points="372.873,-214.5001 362.8729,-218 372.8729,-221.5001 372.873,-214.5001"/>
</g>
<!-- \\Viessmann\\API\\ViessmannApiException -->
<g id="node2" class="node">
<title>\\Viessmann\\API\\ViessmannApiException</title>
<polygon fill="none" stroke="#000000" points="619.6678,-176 461.6678,-176 461.6678,-140 619.6678,-140 619.6678,-176"/>
<text text-anchor="middle" x="540.6678" y="-155.2" font-family="Courier,monospace" font-size="11.00" fill="#000000">ViessmannApiException</text>
</g>
<!-- \\Exception -->
<g id="node5" class="node">
<title>\\Exception</title>
<ellipse fill="none" stroke="#000000" cx="181.3339" cy="-158" rx="48.9926" ry="18"/>
<text text-anchor="middle" x="181.3339" y="-154.3" font-family="Times,serif" font-size="14.00" fill="#c0c0c0">\Exception</text>
</g>
<!-- \\Viessmann\\API\\ViessmannApiException&#45;&gt;\\Exception -->
<g id="edge1" class="edge">
<title>\\Viessmann\\API\\ViessmannApiException&#45;&gt;\\Exception</title>
<path fill="none" stroke="#000000" d="M461.3656,-158C394.6444,-158 300.734,-158 240.446,-158"/>
<polygon fill="none" stroke="#000000" points="240.3321,-154.5001 230.3321,-158 240.3321,-161.5001 240.3321,-154.5001"/>
</g>
<!-- \\Viessmann\\API\\ViessmannAPI -->
<g id="node3" class="node">
<title>\\Viessmann\\API\\ViessmannAPI</title>
<polygon fill="none" stroke="#000000" points="589.6678,-122 491.6678,-122 491.6678,-86 589.6678,-86 589.6678,-122"/>
<text text-anchor="middle" x="540.6678" y="-101.2" font-family="Courier,monospace" font-size="11.00" fill="#000000">ViessmannAPI</text>
</g>
<!-- \\Viessmann\\API\\ViessmannFeature -->
<g id="node4" class="node">
<title>\\Viessmann\\API\\ViessmannFeature</title>
<polygon fill="none" stroke="#000000" points="603.1678,-68 478.1678,-68 478.1678,-32 603.1678,-32 603.1678,-68"/>
<text text-anchor="middle" x="540.6678" y="-47.2" font-family="Courier,monospace" font-size="11.00" fill="#000000">ViessmannFeature</text>
</g>
</g>
</svg>
